<svg width="24" height="24" viewBox="0 0 24 24" fill="none" xmlns="http://www.w3.org/2000/svg">
<path d="M12 5.83297C10.7814 5.83297 9.59009 6.194 8.57683 6.8704C7.56356 7.54681 6.77382 8.50821 6.30747 9.63303C5.84111 10.7578 5.71909 11.9956 5.95684 13.1897C6.19458 14.3838 6.78142 15.4806 7.64312 16.3415C8.50483 17.2024 9.60272 17.7887 10.7979 18.0262C11.9932 18.2637 13.232 18.1418 14.3579 17.6759C15.4838 17.21 16.4461 16.421 17.1231 15.4087C17.8002 14.3964 18.1616 13.2062 18.1616 11.9887C18.1635 11.1798 18.0055 10.3784 17.6966 9.63069C17.3876 8.88294 16.9338 8.20355 16.3613 7.63154C15.7887 7.05953 15.1087 6.60617 14.3603 6.29752C13.6118 5.98886 12.8097 5.83099 12 5.83297ZM12 15.9975C11.2064 15.9975 10.4306 15.7624 9.77076 15.3219C9.1109 14.8814 8.59661 14.2553 8.29291 13.5228C7.98921 12.7903 7.90975 11.9843 8.06458 11.2067C8.2194 10.429 8.60156 9.71475 9.16272 9.15412C9.72388 8.59348 10.4388 8.21169 11.2172 8.05701C11.9955 7.90233 12.8023 7.98172 13.5355 8.28513C14.2687 8.58854 14.8954 9.10236 15.3363 9.76159C15.7772 10.4208 16.0125 11.1959 16.0125 11.9887C16.0125 13.0519 15.5898 14.0716 14.8373 14.8234C14.0848 15.5751 13.0642 15.9975 12 15.9975ZM19.8597 5.57773C19.8597 5.87468 19.7716 6.16496 19.6065 6.41187C19.4413 6.65877 19.2066 6.85121 18.932 6.96485C18.6574 7.07849 18.3553 7.10822 18.0637 7.05029C17.7722 6.99235 17.5044 6.84936 17.2943 6.63938C17.0841 6.42941 16.941 6.16188 16.883 5.87064C16.825 5.57939 16.8548 5.27751 16.9685 5.00317C17.0822 4.72882 17.2749 4.49433 17.522 4.32935C17.7691 4.16438 18.0597 4.07632 18.3569 4.07632C18.7555 4.07632 19.1377 4.23451 19.4196 4.51607C19.7014 4.79764 19.8597 5.17953 19.8597 5.57773ZM23.9324 7.07914C23.9761 5.21263 23.2792 3.40458 21.9937 2.04942C20.6445 0.748733 18.8339 0.0359691 16.9593 0.0675633C15.0056 -0.0225211 8.99436 -0.0225211 7.0407 0.0675633C5.17301 0.0271592 3.36446 0.722929 2.00626 2.00438C0.720801 3.35954 0.0239158 5.16758 0.0676268 7.03409C-0.0225423 8.98592 -0.0225423 14.9916 0.0676268 16.9434C0.0239158 18.8099 0.720801 20.6179 2.00626 21.9731C3.36446 23.2545 5.17301 23.9503 7.0407 23.9099C9.02442 24.03 14.9756 24.03 16.9593 23.9099C18.8276 23.9536 20.6373 23.2574 21.9937 21.9731C23.2792 20.6179 23.9761 18.8099 23.9324 16.9434C24.0225 14.9916 24.0225 8.98592 23.9324 7.03409V7.07914ZM21.3776 19.0904C21.1735 19.6068 20.8655 20.0758 20.4726 20.4684C20.0796 20.8609 19.6102 21.1687 19.0933 21.3725C16.7603 21.8438 14.3753 22.0053 12 21.853C9.62969 22.0056 7.2496 21.844 4.92173 21.3725C4.40485 21.1687 3.93539 20.8609 3.54246 20.4684C3.14952 20.0758 2.84149 19.6068 2.63745 19.0904C2.00626 17.4989 2.14152 13.7454 2.14152 12.0038C2.14152 10.2621 2.00626 6.49359 2.63745 4.91711C2.83573 4.39562 3.14157 3.92162 3.5351 3.52587C3.92863 3.13012 4.40106 2.82147 4.92173 2.61996C7.2496 2.14848 9.62969 1.98693 12 2.13951C14.3753 1.98718 16.7603 2.14873 19.0933 2.61996C19.6102 2.82381 20.0796 3.13155 20.4726 3.52412C20.8655 3.91669 21.1735 4.3857 21.3776 4.9021C22.0088 6.49359 21.8585 10.2471 21.8585 11.9887C21.8585 13.7304 22.0088 17.4989 21.3776 19.0754V19.0904Z" fill="white"/>
</svg>
