<svg width="33" height="24" viewBox="0 0 33 24" fill="none" xmlns="http://www.w3.org/2000/svg">
<path d="M31.7238 3.74904C31.5394 3.02308 31.1777 2.36104 30.6751 1.82918C30.1725 1.29733 29.5465 0.914313 28.8599 0.718471C26.3322 1.45785e-07 16.2 0 16.2 0C16.2 0 6.06777 -1.45785e-07 3.54013 0.71465C2.85315 0.909856 2.22687 1.29266 1.72416 1.82461C1.22146 2.35656 0.860044 3.01894 0.676205 3.74522C-1.37942e-07 6.42038 0 12 0 12C0 12 -1.37942e-07 17.5796 0.676205 20.251C1.04866 21.7261 2.14795 22.8879 3.54013 23.2815C6.06777 24 16.2 24 16.2 24C16.2 24 26.3322 24 28.8599 23.2815C30.2557 22.8879 31.3513 21.7261 31.7238 20.251C32.4 17.5796 32.4 12 32.4 12C32.4 12 32.4 6.42038 31.7238 3.74904ZM12.9817 17.121V6.87898L21.371 11.9618L12.9817 17.121Z" fill="white"/>
</svg>
