<svg width="32" height="28" viewBox="0 0 32 28" fill="none" xmlns="http://www.w3.org/2000/svg">
<path fill-rule="evenodd" clip-rule="evenodd" d="M7.23337 4.06944C7.05206 3.83181 7.13241 3.61584 7.26852 3.40514C7.4659 3.09992 7.72456 2.87232 8.03946 2.70492C8.68786 2.36062 9.33827 2.01474 10.0404 1.81249C12.8469 1.00139 15.6806 0.704629 18.56 1.35467C19.7608 1.6261 20.92 2.02952 22.0209 2.6067C24.1966 3.74731 25.9811 5.35685 27.2885 7.52561C27.3472 7.6233 27.405 7.6476 27.513 7.63598C28.4793 7.53089 29.3788 7.73684 30.1653 8.34569C30.889 8.90544 31.1688 9.93305 30.8991 10.8286C30.6048 11.8013 30.0111 12.472 29.1156 12.8522C29.0252 12.8902 29.0001 12.9367 29.0046 13.0354C29.0714 14.2658 28.9338 15.474 28.6179 16.6579C28.3793 17.5509 28.0438 18.4032 27.626 19.2212C25.3257 23.7313 20.6543 26.6093 16.1487 26.9589C14.6018 27.0787 13.0775 26.9377 11.5773 26.5211C9.08664 25.8278 6.94508 24.5071 5.14805 22.568C5.07272 22.4867 5.01847 22.4672 4.9135 22.52C4.03759 22.9583 3.15866 22.9672 2.27672 22.5289C1.21146 21.9998 0.732828 20.7705 1.14969 19.6098C1.40885 18.8885 1.82369 18.287 2.4083 17.8191C2.48565 17.7574 2.51027 17.7046 2.48767 17.6011C2.01656 15.5004 2.0276 13.4019 2.47962 11.2976C2.9221 9.24181 3.88139 7.48812 5.26457 5.98789C5.83863 5.36425 6.46995 4.79974 7.07616 4.20937C7.12538 4.16343 7.17561 4.12172 7.23337 4.06944ZM27.4999 13.1395C27.1292 13.0386 26.8043 12.9726 26.4944 12.8622C25.6486 12.5618 24.9219 12.0464 24.2559 11.4338C23.9525 11.155 23.6613 10.8603 23.37 10.5662C23.0942 10.2869 23.0294 9.89134 23.1917 9.52961C23.2976 9.29146 23.4769 9.12194 23.6733 8.97091C24.0374 8.69104 24.4432 8.49672 24.8621 8.32985C25.1484 8.21526 25.4387 8.1144 25.739 8.0035C25.7134 7.96284 25.6948 7.92483 25.6692 7.89103C25.4593 7.61116 25.2609 7.32019 25.0364 7.05457C23.4649 5.18998 21.5081 3.96488 19.2616 3.22454C17.9658 2.79786 16.6394 2.58136 15.2828 2.5803C13.6144 2.57872 12.0102 2.90612 10.4899 3.64436C9.5472 4.10166 8.71448 4.73321 7.94053 5.44768C5.9421 7.29009 4.50317 9.51271 3.83017 12.2428C3.45851 13.7504 3.44193 15.266 3.7694 16.7847C3.77743 16.82 3.793 16.8533 3.80857 16.8977C3.84272 16.8792 3.86733 16.8655 3.89295 16.8528C4.45697 16.5592 5.03454 16.301 5.64377 16.1288C5.97223 16.0359 6.30471 15.9678 6.64925 16.0095C7.22583 16.0802 7.53221 16.5286 7.41318 17.1279C7.40162 17.1844 7.40263 17.2441 7.3976 17.3022C7.36697 17.6723 7.35239 18.0436 7.30317 18.4106C7.16505 19.4329 6.89133 20.4077 6.31627 21.2616C6.22184 21.4015 6.22286 21.4876 6.34792 21.5832C6.3665 21.5969 6.38006 21.6175 6.39713 21.6349C7.97719 23.3274 9.87567 24.4395 12.0494 25.0378C13.5426 25.4486 15.0598 25.5642 16.5962 25.4032C20.7955 24.9617 24.4879 22.3779 26.3437 18.5848C26.952 17.3402 27.3422 16.0274 27.4522 14.6318C27.4929 14.128 27.4858 13.62 27.4999 13.1395ZM24.5934 10.0788C24.9621 10.3919 25.292 10.6903 25.6411 10.9638C26.1514 11.3646 26.7003 11.6952 27.3392 11.8108C28.1317 11.9545 28.8304 11.7438 29.3798 11.1138C29.877 10.543 29.7871 9.7007 29.204 9.26083C28.9187 9.04538 28.5878 8.96036 28.2457 8.94294C27.0509 8.88485 25.9445 9.20802 24.9103 9.82375C24.8069 9.88553 24.72 9.97583 24.5934 10.0788ZM6.11436 17.581C5.89538 17.6143 5.71508 17.6264 5.5413 17.6718C4.88035 17.8434 4.26712 18.137 3.70009 18.5289C3.29025 18.8119 2.91507 19.1377 2.64738 19.5808C2.16472 20.3781 2.61674 21.336 3.51375 21.4084C4.30227 21.4718 5.11088 20.9569 5.4961 20.1664C5.73668 19.6727 5.8778 19.1499 5.9672 18.6086C6.01994 18.2828 6.06112 17.9549 6.11436 17.581Z" fill="#310D75" stroke="#310D75"/>
<path fill-rule="evenodd" clip-rule="evenodd" d="M11.248 22.2645C10.2482 21.7925 9.26661 21.235 8.41236 20.4482C8.13197 20.1898 7.87576 19.907 7.69555 19.5555C7.39956 18.9785 7.47909 18.4465 7.94925 18.0231C8.13299 17.8576 8.34038 17.7084 8.55885 17.604C9.88629 16.966 11.2152 16.3317 12.6036 15.8515C14.2683 15.2757 15.9284 14.6901 17.5816 14.0764C19.0711 13.5232 20.548 12.9327 22.0255 12.3455C22.3708 12.2087 22.696 12.0178 23.0312 11.8551C23.2593 11.7437 23.4843 11.6155 23.7224 11.5398C23.8452 11.5014 24.0018 11.5387 24.1306 11.5815C24.563 11.7253 24.8344 12.0524 24.9819 12.505C25.1253 12.9473 25.146 13.4069 25.1213 13.8682C25.077 14.7322 24.9048 15.5709 24.6672 16.395C24.558 16.7719 24.4382 17.1471 24.3003 17.5132C23.8734 18.6465 23.2205 19.6128 22.3652 20.4131C21.1491 21.5513 19.7748 22.404 18.235 22.9296C17.124 23.3086 15.9833 23.3416 14.8321 23.2286C13.5998 23.1064 12.4188 22.762 11.248 22.2645ZM9.15386 18.9591C9.16645 19.0088 9.16644 19.0207 9.17248 19.0272C9.19815 19.0564 9.22383 19.0845 9.25101 19.111C9.95374 19.7869 10.7325 20.3347 11.5988 20.7413C12.3403 21.0895 13.11 21.3393 13.8983 21.5297C14.7102 21.726 15.5282 21.8422 16.3629 21.7654C18.0009 21.6146 19.4245 20.8922 20.7126 19.8415C21.6494 19.0775 22.3683 18.1069 22.9099 16.9844C23.2905 16.1938 23.5492 15.3644 23.6051 14.4711C23.6318 14.0661 23.6131 13.6649 23.5276 13.2528C23.4727 13.275 23.4294 13.2901 23.3871 13.3085C22.3844 13.7287 21.3902 14.1775 20.3759 14.5641C18.3497 15.3341 16.3095 16.0619 14.2803 16.8232C12.8185 17.3726 11.3642 17.942 9.91297 18.5189C9.64265 18.626 9.40052 18.8136 9.15386 18.9591Z" fill="#310D75" stroke="#310D75"/>
<path fill-rule="evenodd" clip-rule="evenodd" d="M11.3568 11.269C11.1038 11.2183 10.8708 11.1719 10.6393 11.126C9.55537 10.9123 8.47097 10.7018 7.38801 10.4828C7.03163 10.4105 6.81294 10.0253 6.8825 9.62216C6.95301 9.21481 7.24459 8.98793 7.61956 9.06127C9.3624 9.40214 11.1052 9.74193 12.8476 10.0897C13.2068 10.1614 13.4551 10.5677 13.3769 10.9508C13.3526 11.0716 13.2859 11.1983 13.2059 11.2874C12.0429 12.5939 10.8356 13.8492 9.5849 15.0523C9.3057 15.3208 8.95599 15.2944 8.71205 14.9979C8.45524 14.685 8.46192 14.2318 8.74111 13.9463C9.08844 13.5922 9.44817 13.2545 9.7955 12.9015C10.2877 12.4003 10.7746 11.8906 11.2629 11.3835C11.2906 11.3545 11.3139 11.3212 11.3568 11.269Z" fill="#310D75" stroke="#310D75"/>
<path fill-rule="evenodd" clip-rule="evenodd" d="M16.6843 9.25002C16.762 9.24283 16.8165 9.24061 16.8695 9.23287C18.0501 9.06528 19.2308 8.89824 20.4115 8.72732C20.913 8.65487 21.2788 9.05366 21.2087 9.6029C21.1653 9.94251 20.9473 10.1837 20.6103 10.2357C19.6995 10.3772 18.7893 10.5227 17.8756 10.6427C17.1021 10.7445 16.3246 10.8142 15.5491 10.8994C15.3069 10.9259 15.095 10.854 14.9164 10.6748C14.6807 10.437 14.6277 10.1134 14.7862 9.80976C15.1863 9.04094 15.5945 8.27709 15.9981 7.51048C16.4098 6.73114 16.821 5.95181 17.2318 5.17137C17.3488 4.95013 17.4603 4.72501 17.5814 4.50653C17.815 4.08506 18.2732 3.97279 18.6526 4.23828C18.9028 4.41307 19.0093 4.76262 18.8736 5.05964C18.7197 5.39759 18.5386 5.72172 18.366 6.04972C17.9558 6.8296 17.5431 7.60838 17.1324 8.38826C17.0052 8.62776 16.8801 8.86671 16.7549 9.10676C16.7348 9.14493 16.7161 9.1842 16.6843 9.25002Z" fill="#310D75" stroke="#310D75"/>
</svg>
