<svg width="179" height="39" viewBox="0 0 179 39" fill="none" xmlns="http://www.w3.org/2000/svg">
<g clip-path="url(#clip0_139_646)">
<path fill-rule="evenodd" clip-rule="evenodd" d="M1.01393 0.352093L178.23 0.36413C178.23 0.36413 179.179 -0.055113 178.893 1.12778C178.606 2.31143 173.128 25.7095 173.128 25.7095C173.128 25.7095 172.908 26.425 171.853 26.4637C170.798 26.5025 144.906 27.5056 144.906 27.5056C144.906 27.5056 143.029 27.2315 143.043 28.5881C143.056 29.9451 143.058 38.2378 143.058 38.2378C143.058 38.2378 143.053 39.315 142.15 38.6822C141.248 38.0494 128.147 28.8231 128.147 28.8231C128.147 28.8231 127.506 28.2437 125.842 28.2949C124.177 28.3464 19.4401 31.0818 19.4401 31.0818C19.4401 31.0818 16.8903 31.739 15.861 30.1072C14.8313 28.475 0.687151 2.92619 0.0732253 1.27743C-0.293854 0.292314 1.01393 0.352093 1.01393 0.352093Z" fill="#5B4BB1"/>
<path fill-rule="evenodd" clip-rule="evenodd" d="M156.32 8.16863C155.689 8.9947 155.025 9.79219 154.44 10.6574C154.041 11.2469 153.807 11.3214 153.314 10.7281C152.392 9.6151 151.254 8.97927 149.85 9.49515C148.262 10.0779 147.519 12.1978 148.166 14.2245C148.72 15.9646 150.25 16.732 151.85 16.0665C152.472 15.8086 153.044 15.445 153.514 14.9182C153.772 14.629 153.951 14.6343 154.193 14.9317C154.872 15.7672 155.565 16.5888 156.259 17.4084C156.446 17.6295 156.492 17.8153 156.278 18.0536C153.502 21.1305 149.032 22.0532 145.625 18.9429C142.713 16.2857 142.374 10.8574 144.872 7.72946C146.971 5.1001 150.598 4.265 153.714 5.68741C154.589 6.08597 155.38 6.62891 156.081 7.33353C156.364 7.61854 156.515 7.59147 156.525 7.13651C156.527 7.05153 156.525 6.96693 156.527 6.88196C156.565 5.16063 156.565 5.16063 158.072 5.16063C161.429 5.16063 164.786 5.18469 168.142 5.1407C168.838 5.13168 169.012 5.37495 168.962 6.09913C168.908 6.88572 168.922 7.68208 168.959 8.47168C168.986 9.0541 168.824 9.28196 168.28 9.25301C167.449 9.20864 166.613 9.2797 165.783 9.22857C165.185 9.19134 165.005 9.41093 165.011 10.0866C165.041 13.3067 165.008 16.5286 165.037 19.7494C165.044 20.4345 164.9 20.7022 164.247 20.6661C163.19 20.6074 162.126 20.6213 161.068 20.6619C160.527 20.683 160.389 20.4657 160.392 19.8848C160.414 16.6354 160.386 13.3864 160.416 10.137C160.422 9.44363 160.263 9.17029 159.619 9.22857C158.967 9.28722 158.307 9.24511 157.651 9.24023C157.036 9.23609 156.256 9.48425 156.552 8.028C156.475 8.075 156.398 8.122 156.32 8.16863Z" fill="white"/>
<path fill-rule="evenodd" clip-rule="evenodd" d="M141.039 20.6495C140.812 20.6499 140.585 20.6499 140.358 20.6499C138.742 20.6499 138.731 20.6544 138.164 18.9955C138.037 18.6229 137.873 18.4567 137.512 18.4608C136.125 18.4755 134.738 18.4879 133.352 18.4552C132.881 18.4439 132.769 18.744 132.636 19.1361C132.123 20.6533 132.116 20.6499 130.639 20.6499C129.757 20.6499 128.874 20.6386 127.992 20.6552C127.572 20.6631 127.454 20.5386 127.632 20.0679C129.451 15.2622 131.261 10.4524 133.062 5.63813C133.203 5.26176 133.407 5.14708 133.754 5.15197C134.99 5.17002 136.225 5.17566 137.461 5.15197C137.855 5.14445 138.035 5.31741 138.178 5.71597C139.882 10.4524 141.592 15.1863 143.325 19.9096C143.561 20.5499 143.415 20.6913 142.855 20.6574C142.25 20.621 141.644 20.6495 141.039 20.6495ZM135.567 10.6641C135.5 10.6652 135.433 10.6664 135.365 10.6675C134.975 11.8809 134.586 13.0942 134.192 14.3057C134.082 14.6433 134.186 14.7749 134.494 14.7715C135.123 14.7655 135.752 14.7685 136.382 14.7715C136.671 14.773 136.812 14.6606 136.702 14.3102C136.321 13.0957 135.945 11.8797 135.567 10.6641Z" fill="white"/>
<path fill-rule="evenodd" clip-rule="evenodd" d="M117.012 12.8645C117.012 10.5483 117.027 8.2314 117.002 5.91524C116.995 5.32944 117.146 5.1437 117.68 5.14821C120.936 5.17303 124.191 5.17189 127.446 5.14896C127.966 5.14482 128.167 5.29786 128.136 5.9036C128.095 6.72027 128.101 7.54258 128.134 8.36037C128.157 8.91723 127.979 9.09319 127.485 9.08567C125.769 9.0586 124.053 9.09883 122.337 9.06311C121.777 9.05183 121.6 9.23457 121.605 9.87527C121.623 11.7049 121.598 11.7049 123.235 11.7053C124.548 11.7053 125.86 11.7199 127.172 11.6974C127.596 11.6906 127.756 11.8463 127.742 12.3294C127.717 13.204 127.715 14.0816 127.743 14.9561C127.76 15.4844 127.572 15.6348 127.121 15.6281C125.557 15.6044 123.992 15.6461 122.428 15.6044C121.817 15.5882 121.572 15.7627 121.605 16.4947C121.657 17.6502 121.601 18.8109 121.627 19.9682C121.639 20.4799 121.49 20.6706 121.023 20.6589C119.913 20.6311 118.802 20.6247 117.692 20.6604C117.172 20.6774 116.993 20.5018 117 19.8994C117.028 17.5547 117.012 15.21 117.012 12.8645Z" fill="white"/>
<path fill-rule="evenodd" clip-rule="evenodd" d="M97.1682 6.18555C97.047 6.01635 97.1007 5.86257 97.1917 5.71254C97.3237 5.49522 97.4966 5.33315 97.7072 5.21396C98.1408 4.96881 98.5757 4.72253 99.0452 4.57852C100.922 4.00099 102.817 3.78969 104.742 4.25254C105.545 4.4458 106.32 4.73306 107.056 5.14402C108.511 5.95618 109.705 7.10223 110.579 8.64646C110.618 8.71602 110.657 8.73332 110.729 8.72505C111.375 8.65022 111.977 8.79686 112.503 9.23039C112.987 9.62895 113.174 10.3606 112.993 10.9983C112.796 11.6909 112.399 12.1684 111.801 12.4392C111.74 12.4662 111.723 12.4993 111.726 12.5696C111.771 13.4457 111.679 14.306 111.468 15.149C111.308 15.7848 111.084 16.3917 110.805 16.9741C109.266 20.1855 106.143 22.2347 103.13 22.4836C102.095 22.569 101.076 22.4686 100.073 22.1719C98.4075 21.6782 96.9754 20.7379 95.7738 19.3572C95.7234 19.2993 95.6871 19.2854 95.6169 19.323C95.0312 19.635 94.4435 19.6414 93.8537 19.3294C93.1414 18.9526 92.8213 18.0773 93.1001 17.2508C93.2734 16.7372 93.5508 16.309 93.9417 15.9758C93.9934 15.9318 94.0099 15.8942 93.9948 15.8205C93.6798 14.3248 93.6871 12.8306 93.9894 11.3322C94.2853 9.86846 94.9268 8.61977 95.8517 7.55155C96.2355 7.1075 96.6577 6.70555 97.0631 6.28518C97.096 6.25247 97.1296 6.22277 97.1682 6.18555ZM110.72 12.6437C110.472 12.5719 110.255 12.5249 110.048 12.4463C109.482 12.2324 108.996 11.8654 108.551 11.4292C108.348 11.2307 108.153 11.0209 107.959 10.8115C107.774 10.6126 107.731 10.3309 107.839 10.0734C107.91 9.9038 108.03 9.7831 108.161 9.67557C108.405 9.47629 108.676 9.33792 108.956 9.21911C109.148 9.13752 109.342 9.0657 109.543 8.98674C109.526 8.95779 109.513 8.93072 109.496 8.90666C109.356 8.70738 109.223 8.5002 109.073 8.31107C108.022 6.98341 106.714 6.1111 105.211 5.58395C104.345 5.28014 103.458 5.12598 102.551 5.12523C101.435 5.1241 100.362 5.35723 99.3458 5.88287C98.7154 6.20849 98.1586 6.65817 97.6411 7.1669C96.3047 8.47876 95.3425 10.0613 94.8925 12.0053C94.644 13.0787 94.6329 14.1579 94.8519 15.2392C94.8572 15.2644 94.8677 15.2881 94.8781 15.3197C94.9009 15.3065 94.9174 15.2968 94.9345 15.2877C95.3116 15.0787 95.6979 14.8948 96.1052 14.7722C96.3249 14.7061 96.5472 14.6576 96.7776 14.6873C97.1631 14.7376 97.368 15.0569 97.2884 15.4836C97.2807 15.5239 97.2814 15.5664 97.278 15.6077C97.2575 15.8713 97.2478 16.1356 97.2149 16.3969C97.1225 17.1249 96.9395 17.819 96.5549 18.427C96.4918 18.5266 96.4925 18.5879 96.5761 18.6559C96.5885 18.6657 96.5976 18.6804 96.609 18.6928C97.6656 19.8979 98.9351 20.6897 100.389 21.1157C101.387 21.4083 102.402 21.4906 103.429 21.3759C106.237 21.0616 108.706 19.2218 109.947 16.521C110.354 15.6348 110.615 14.7 110.688 13.7063C110.716 13.3476 110.711 12.9859 110.72 12.6437ZM108.777 10.4644C109.023 10.6874 109.244 10.8998 109.477 11.0946C109.818 11.38 110.186 11.6154 110.613 11.6977C111.143 11.8 111.61 11.6499 111.977 11.2014C112.31 10.7949 112.25 10.1952 111.86 9.882C111.669 9.72859 111.448 9.66806 111.219 9.65565C110.42 9.61429 109.68 9.8444 108.989 10.2828C108.919 10.3268 108.861 10.3911 108.777 10.4644ZM96.4199 15.8062C96.2735 15.8299 96.1529 15.8386 96.0367 15.8709C95.5948 15.9931 95.1847 16.2022 94.8055 16.4812C94.5315 16.6827 94.2806 16.9147 94.1016 17.2301C93.7788 17.7979 94.0811 18.48 94.6809 18.5315C95.2082 18.5766 95.7489 18.21 96.0065 17.6471C96.1674 17.2956 96.2617 16.9233 96.3215 16.5379C96.3568 16.3059 96.3843 16.0725 96.4199 15.8062Z" fill="white"/>
<path fill-rule="evenodd" clip-rule="evenodd" d="M99.897 19.1673C99.23 18.839 98.5751 18.4514 98.0051 17.9043C97.8181 17.7246 97.6471 17.5279 97.5269 17.2835C97.3294 16.8823 97.3825 16.5124 97.6962 16.218C97.8187 16.1029 97.9571 15.9991 98.1029 15.9265C98.9885 15.4829 99.8751 15.0418 100.801 14.7079C101.912 14.3075 103.02 13.9003 104.123 13.4735C105.116 13.0889 106.102 12.6783 107.087 12.27C107.318 12.1748 107.535 12.0421 107.758 11.9289C107.911 11.8515 108.061 11.7624 108.22 11.7097C108.301 11.683 108.406 11.709 108.492 11.7387C108.78 11.8387 108.961 12.0662 109.06 12.3809C109.156 12.6884 109.169 13.008 109.153 13.3288C109.123 13.9296 109.008 14.5128 108.85 15.0858C108.777 15.3479 108.697 15.6088 108.605 15.8634C108.32 16.6515 107.885 17.3234 107.314 17.8799C106.503 18.6713 105.586 19.2643 104.558 19.6298C103.817 19.8933 103.056 19.9163 102.288 19.8377C101.466 19.7527 100.678 19.5132 99.897 19.1673ZM98.4998 16.8688C98.5082 16.9034 98.5082 16.9117 98.5123 16.9162C98.5294 16.9365 98.5465 16.956 98.5647 16.9745C99.0335 17.4445 99.5531 17.8253 100.131 18.1081C100.626 18.3502 101.139 18.524 101.665 18.6563C102.207 18.7928 102.753 18.8736 103.309 18.8202C104.402 18.7153 105.352 18.213 106.212 17.4824C106.837 16.9511 107.316 16.2762 107.677 15.4957C107.931 14.9459 108.104 14.3692 108.141 13.748C108.159 13.4664 108.147 13.1874 108.09 12.9009C108.053 12.9163 108.024 12.9268 107.996 12.9396C107.327 13.2318 106.664 13.5438 105.987 13.8127C104.635 14.3481 103.274 14.8542 101.92 15.3836C100.945 15.7656 99.9745 16.1616 99.0063 16.5627C98.8259 16.6372 98.6644 16.7677 98.4998 16.8688Z" fill="white"/>
<path fill-rule="evenodd" clip-rule="evenodd" d="M99.9174 11.5887C99.7391 11.5526 99.5748 11.5195 99.4116 11.4868C98.6476 11.3345 97.8832 11.1845 97.1198 11.0284C96.8686 10.9769 96.7144 10.7024 96.7635 10.4152C96.8132 10.1249 97.0187 9.96321 97.283 10.0155C98.5115 10.2584 99.7401 10.5005 100.968 10.7483C101.221 10.7994 101.396 11.089 101.341 11.3619C101.324 11.448 101.277 11.5383 101.221 11.6018C100.401 12.5328 99.55 13.4273 98.6684 14.2846C98.4716 14.476 98.2251 14.4571 98.0531 14.2458C97.8721 14.0229 97.8768 13.6999 98.0736 13.4965C98.3184 13.2442 98.572 13.0035 98.8168 12.752C99.1638 12.3948 99.507 12.0316 99.8512 11.6702C99.8707 11.6496 99.8872 11.6259 99.9174 11.5887Z" fill="white"/>
<path fill-rule="evenodd" clip-rule="evenodd" d="M103.546 10.0869C103.598 10.082 103.634 10.0805 103.669 10.0753C104.455 9.96133 105.241 9.84778 106.027 9.7316C106.361 9.68234 106.604 9.95344 106.557 10.3268C106.529 10.5577 106.383 10.7216 106.159 10.7569C105.553 10.8532 104.947 10.9521 104.339 11.0337C103.824 11.1029 103.306 11.1502 102.79 11.2081C102.629 11.2262 102.488 11.1773 102.369 11.0555C102.212 10.8938 102.177 10.6739 102.282 10.4674C102.549 9.94479 102.82 9.42553 103.089 8.9044C103.363 8.37461 103.637 7.84483 103.91 7.31429C103.988 7.16389 104.062 7.01086 104.143 6.86234C104.298 6.57583 104.603 6.49951 104.856 6.67999C105.023 6.79881 105.093 7.03643 105.003 7.23834C104.901 7.46808 104.78 7.68842 104.665 7.91138C104.392 8.44154 104.117 8.97095 103.844 9.50111C103.759 9.66392 103.676 9.82635 103.593 9.98954C103.579 10.0155 103.567 10.0422 103.546 10.0869Z" fill="white"/>
<path d="M17 5.41022H19.7852V15.966C19.7852 16.8756 19.8564 17.5185 19.9984 17.8957C20.1405 18.2724 20.3752 18.574 20.7024 18.7992C21.0295 19.0244 21.4241 19.1372 21.8869 19.1372C22.3755 19.1372 22.797 19.0116 23.1507 18.7601C23.5043 18.5089 23.7485 18.1889 23.8842 17.8009C24.0195 17.4132 24.0873 16.6718 24.0873 15.578V5.40985H26.8725V15.1422C26.8725 16.7846 26.7899 17.9239 26.625 18.56C26.4598 19.1962 26.1441 19.8106 25.6786 20.4021C25.2124 20.9939 24.6757 21.4323 24.0675 21.7173C23.4597 22.0019 22.7527 22.1444 21.9467 22.1444C20.8894 22.1444 19.9692 21.8726 19.186 21.3289C18.4028 20.7852 17.843 20.1043 17.5058 19.2868C17.1689 18.4694 17.0003 17.0876 17.0003 15.1422L17 5.41022Z" fill="white"/>
<path d="M37.7462 7.62973L35.6908 9.66051C34.9691 8.53627 34.2342 7.97378 33.4863 7.97378C33.1222 7.97378 32.8243 8.08319 32.5929 8.30127C32.3612 8.51935 32.2453 8.76525 32.2453 9.03935C32.2453 9.31308 32.328 9.57177 32.4935 9.81579C32.7186 10.1414 33.397 10.8408 34.5291 11.9131C35.588 12.9046 36.2302 13.5299 36.4552 13.7886C37.018 14.4248 37.4164 15.0335 37.6518 15.6137C37.8869 16.1946 38.0044 16.8289 38.0044 17.517C38.0044 18.8563 37.591 19.9625 36.7641 20.8352C35.9373 21.7083 34.8589 22.1444 33.5293 22.1444C32.4905 22.1444 31.5861 21.8594 30.8153 21.2902C30.0449 20.7205 29.3846 19.8253 28.8355 18.6044L31.1683 17.029C31.8702 18.4717 32.6772 19.1928 33.5907 19.1928C34.0673 19.1928 34.4676 19.0376 34.7921 18.727C35.1165 18.416 35.2784 18.0573 35.2784 17.6505C35.2784 17.2809 35.1558 16.9109 34.911 16.5409C34.6661 16.1713 34.1264 15.6051 33.2925 14.8429C31.704 13.393 30.6776 12.2737 30.2145 11.486C29.751 10.6979 29.5196 9.91168 29.5196 9.12772C29.5196 7.99596 29.9048 7.02475 30.6756 6.21485C31.4464 5.40495 32.3975 5 33.5286 5C34.2564 5 34.9492 5.18837 35.6075 5.56587C36.2654 5.94262 36.9784 6.63108 37.7462 7.62973Z" fill="white"/>
<path d="M40.6603 5.41022H48.6195V8.45093H43.4159V11.4029H48.6195V14.388H43.4159V18.6826H48.6195V21.7342H40.6603V5.41022Z" fill="white"/>
<path d="M51.2072 5.41022H53.9826V18.7714H58.0269V21.7342H51.2072V5.41022Z" fill="white"/>
<path d="M60.1478 5.41022H68.107V8.45093H62.9034V11.4029H68.107V14.388H62.9034V18.6826H68.107V21.7342H60.1478V5.41022Z" fill="white"/>
<path d="M78.3462 7.62973L76.2908 9.66051C75.5691 8.53627 74.8343 7.97378 74.0863 7.97378C73.7223 7.97378 73.4244 8.08319 73.193 8.30127C72.9613 8.51935 72.8454 8.76525 72.8454 9.03935C72.8454 9.31308 72.928 9.57177 73.0936 9.81579C73.3186 10.1414 73.997 10.8408 75.1291 11.9131C76.1881 12.9046 76.8302 13.5299 77.0552 13.7886C77.6181 14.4248 78.0164 15.0335 78.2518 15.6137C78.4869 16.1946 78.6045 16.8289 78.6045 17.517C78.6045 18.8563 78.191 19.9625 77.3642 20.8352C76.5373 21.7083 75.4589 22.1444 74.1293 22.1444C73.0906 22.1444 72.1861 21.8594 71.4154 21.2902C70.6449 20.7205 69.9847 19.8253 69.4355 18.6044L71.7683 17.029C72.4702 18.4717 73.2773 19.1928 74.1908 19.1928C74.6673 19.1928 75.0677 19.0376 75.3921 18.727C75.7165 18.416 75.8784 18.0573 75.8784 17.6505C75.8784 17.2809 75.7558 16.9109 75.511 16.5409C75.2662 16.1713 74.7265 15.6051 73.8925 14.8429C72.304 13.393 71.2777 12.2737 70.8145 11.486C70.3511 10.6979 70.1197 9.91168 70.1197 9.12772C70.1197 7.99596 70.5049 7.02475 71.2756 6.21485C72.0464 5.40495 72.9975 5 74.1287 5C74.8564 5 75.5493 5.18837 76.2075 5.56587C76.8658 5.94262 77.5788 6.63108 78.3462 7.62973Z" fill="white"/>
<path d="M88.9025 7.62973L86.8474 9.66051C86.1254 8.53627 85.3905 7.97378 84.6429 7.97378C84.2789 7.97378 83.981 8.08319 83.7496 8.30127C83.5175 8.51935 83.402 8.76525 83.402 9.03935C83.402 9.31308 83.4846 9.57177 83.6498 9.81579C83.8749 10.1414 84.5536 10.8408 85.6854 11.9131C86.7447 12.9046 87.3868 13.5299 87.6118 13.7886C88.1747 14.4248 88.5727 15.0335 88.8084 15.6137C89.0432 16.1946 89.1607 16.8289 89.1607 17.517C89.1607 18.8563 88.7476 19.9625 87.9205 20.8352C87.0939 21.7083 86.0155 22.1444 84.6859 22.1444C83.6468 22.1444 82.7424 21.8594 81.9716 21.2902C81.2012 20.7205 80.5409 19.8253 79.9918 18.6044L82.3246 17.029C83.0265 18.4717 83.8336 19.1928 84.7471 19.1928C85.2233 19.1928 85.6239 19.0376 85.948 18.727C86.2728 18.416 86.4347 18.0573 86.4347 17.6505C86.4347 17.2809 86.3121 16.9109 86.0673 16.5409C85.8221 16.1713 85.2827 15.6051 84.4485 14.8429C82.8599 13.393 81.8336 12.2737 81.3705 11.486C80.907 10.6979 80.6756 9.91168 80.6756 9.12772C80.6756 7.99596 81.0608 7.02475 81.8316 6.21485C82.6023 5.40495 83.5535 5 84.6846 5C85.4127 5 86.1052 5.18837 86.7638 5.56587C87.4221 5.94262 88.1351 6.63108 88.9025 7.62973Z" fill="white"/>
</g>
<defs>
<clipPath id="clip0_139_646">
<rect width="179" height="39" fill="white"/>
</clipPath>
</defs>
</svg>
